PathFileType	4	(X/Y/Z)	Kaydara																																																																																																																									
DataRate	CameraRate	NumFrames	NumMarkers	Units	OrigDataRate	OrigDataStartFrame	OrigNumFrames																																																																																																																					
30	30	7	41	mm	30	74	195																																																																																																																					
Frame#	Time	NABA_LFHD			NABA_RFHD			NABA_LBHD			NABA_RBHD			NABA_LFTShould			NABA_RFTShould			NABA_LRRShould			NABA_RRRShould			NABA_T10			NABA_STRN			NABA_TRUN			NABA_LSHO			NABA_LUPA			NABA_LELB			NABA_LFRM			NABA_LWRA			NABA_LWRB			NABA_LFIN			NABA_RSHO			NABA_RUPA			NABA_RELB			NABA_RFRM			NABA_RWRA			NABA_RWRB			NABA_RFIN			NABA_LFWT			NABA_RFWT			NABA_LBWT			NABA_RBWT			NABA_LTHI			NABA_LKNE			NABA_LSHN			NABA_LANK			NABA_LHEE			NABA_LTOE			NABA_RTHI			NABA_RKNE			NABA_RSHN			NABA_RANK			NABA_RHEE			NABA_RTOE		
		X1	Y1	Z1	X2	Y2	Z2	X3	Y3	Z3	X4	Y4	Z4	X5	Y5	Z5	X6	Y6	Z6	X7	Y7	Z7	X8	Y8	Z8	X9	Y9	Z9	X10	Y10	Z10	X11	Y11	Z11	X12	Y12	Z12	X13	Y13	Z13	X14	Y14	Z14	X15	Y15	Z15	X16	Y16	Z16	X17	Y17	Z17	X18	Y18	Z18	X19	Y19	Z19	X20	Y20	Z20	X21	Y21	Z21	X22	Y22	Z22	X23	Y23	Z23	X24	Y24	Z24	X25	Y25	Z25	X26	Y26	Z26	X27	Y27	Z27	X28	Y28	Z28	X29	Y29	Z29	X30	Y30	Z30	X31	Y31	Z31	X32	Y32	Z32	X33	Y33	Z33	X34	Y34	Z34	X35	Y35	Z35	X36	Y36	Z36	X37	Y37	Z37	X38	Y38	Z38	X39	Y39	Z39	X40	Y40	Z40	X41	Y41	Z41
																																																																																																																												
74	2.443	247.96087	1564.81491	-1618.10547	77.93193	1557.97119	-1591.83914	262.40002	1499.2366	-1725.93567	44.657	1514.28543	-1677.76627	219.96769	1305.44586	-1574.31	95.00271	1300.72205	-1598.93158	247.18575	1365.59738	-1690.8728	103.5119	1369.20883	-1706.56601	207.47822	1216.92268	-1785.63095	150.86058	1241.33484	-1543.48404	148.56239	1136.09718	-1511.04721	320.89535	1342.00882	-1600.72388	420.70328	1176.15234	-1720.98816	444.179	1084.9073	-1746.28387	451.53725	1035.64537	-1807.83081	403.82256	870.07484	-1841.67603	475.23533	872.74376	-1828.88611	456.8359	800.06104	-1830.81223	16.65439	1340.92041	-1655.55557	18.6233	1265.28175	-1821.80252	-42.39672	1175.18753	-1909.44748	-45.82485	1112.94456	-1983.26492	-6.20102	964.72725	-2029.79507	-75.82831	979.13284	-2058.46451	-65.27697	926.44203	-2072.31552	313.58841	879.99451	-1645.64835	50.40117	885.65506	-1663.73749	277.42476	978.41881	-1798.67783	107.01487	992.70271	-1816.39023	321.47263	638.16917	-1874.8378	309.24278	478.80241	-1879.51614	250.46083	290.50362	-1933.19244	280.65634	169.52488	-2046.0466	225.78306	141.49693	-2117.84912	236.13871	80.32709	-1958.58475	42.33886	620.28591	-1708.69537	69.34015	524.02954	-1531.81793	76.34554	358.82282	-1476.65421	64.87524	158.8391	-1448.08121	106.66861	87.60821	-1489.03046	93.96511	136.93245	-1312.90771
75	2.477	242.1665	1559.91455	-1593.1279	72.34358	1555.16144	-1566.07315	255.7868	1490.9259	-1699.01062	38.35247	1509.00894	-1650.43961	212.91641	1300.69229	-1542.19116	87.73286	1295.6871	-1566.42776	240.15429	1360.35782	-1658.46436	95.90673	1363.48557	-1674.77158	200.13865	1211.74446	-1753.66287	144.03926	1236.07353	-1511.52557	141.93696	1131.31218	-1478.63968	313.78836	1336.8222	-1568.54935	411.35254	1166.78986	-1688.45596	433.0127	1076.23978	-1713.57254	440.38094	1029.15627	-1775.48935	399.28131	863.11424	-1813.27042	470.686	867.96883	-1799.80881	452.95547	793.96362	-1806.11969	8.88957	1335.03571	-1623.63998	13.29465	1256.73645	-1788.89557	-44.40744	1164.74258	-1876.26221	-46.84064	1102.65884	-1949.62662	-9.98617	953.52142	-1994.42017	-78.90486	969.69109	-2025.36911	-67.62324	916.28464	-2039.37286	310.44065	876.31943	-1613.39905	46.56244	879.05518	-1630.10391	272.79409	974.66476	-1765.11017	100.97676	987.40578	-1782.99927	318.73775	639.589	-1849.16626	308.09711	480.5489	-1859.11743	251.13615	293.45776	-1920.40894	281.69565	178.31717	-2038.82324	226.8111	153.28023	-2111.26526	237.5029	80.92395	-1955.88455	42.29359	614.60396	-1677.7565	64.24222	516.23402	-1502.0932	70.15936	350.43209	-1449.77646	58.0061	150.16908	-1424.82224	100.42186	79.13478	-1466.65924	84.23629	126.3154	-1290.11276
76	2.51	234.87774	1557.35199	-1568.84125	65.63021	1554.32846	-1540.07629	247.25946	1484.69131	-1672.46857	30.46654	1505.32806	-1622.39471	206.01067	1298.38104	-1509.64233	80.11567	1292.34589	-1532.18414	231.63189	1357.08588	-1627.03217	86.55489	1358.70972	-1642.1376	190.54337	1206.32263	-1720.00412	137.74355	1233.45932	-1477.70615	136.34012	1129.21555	-1442.63901	306.52563	1333.80707	-1537.71011	399.10198	1154.66164	-1653.99078	419.04346	1066.54137	-1677.14264	425.14534	1019.89548	-1738.90167	392.88322	852.35161	-1775.52826	464.25968	860.7872	-1762.62726	447.32826	784.82292	-1773.10471	-0.13103	1329.77509	-1589.36249	3.84707	1244.97597	-1753.44376	-50.12595	1147.3555	-1835.98785	-51.93102	1084.74258	-1907.80807	-16.02999	934.75723	-1949.92981	-84.22532	951.08322	-1981.96487	-73.04755	897.53822	-1995.25406	307.0483	873.99101	-1578.17795	43.24207	873.77945	-1592.25662	266.32456	973.04855	-1729.41772	93.31705	984.34486	-1745.10773	315.06222	641.87004	-1819.34555	306.89493	483.73039	-1834.45953	252.43084	298.2745	-1903.95477	282.38819	189.9972	-2028.51608	226.9552	168.97396	-2101.09909	239.01516	81.79771	-1951.82526	38.97006	608.74367	-1645.5574	58.18475	506.90079	-1471.86417	63.55394	340.54836	-1427.83661	56.62551	140.19209	-1413.8678	104.84061	76.43206	-1456.53595	69.34146	98.85714	-1279.63379
77	2.543	226.43726	1560.86914	-1546.55579	57.13206	1559.04877	-1516.76193	238.1221	1483.69171	-1646.92184	21.59353	1506.57242	-1596.73447	199.49343	1300.99365	-1476.8457	73.18755	1293.16071	-1497.60895	222.97775	1358.50922	-1597.70065	76.2969	1357.94479	-1609.6431	181.83451	1204.73381	-1685.14221	132.33354	1235.95825	-1442.53021	132.42834	1133.00934	-1403.99048	300.11221	1336.0112	-1507.41257	384.2606	1144.21066	-1618.23395	404.09676	1058.71147	-1636.6655	405.61451	1010.58258	-1697.02499	383.49094	841.17371	-1728.01163	455.27077	854.46945	-1719.37134	441.74095	776.73309	-1729.55933	-10.06933	1326.62567	-1554.31335	-8.74936	1231.27632	-1715.4364	-58.83333	1125.69885	-1788.72375	-61.04364	1060.99319	-1857.24701	-24.82864	909.84032	-1893.5965	-93.7249	924.13589	-1924.80881	-81.90402	870.36873	-1936.53992	300.00757	873.99078	-1538.10791	36.95507	877.70203	-1557.00531	260.01669	976.17393	-1691.83807	90.32908	991.11603	-1707.18079	311.51127	646.88629	-1783.49167	304.18226	489.5586	-1802.10754	252.91725	306.72964	-1881.20056	285.24378	205.97376	-2011.45615	230.95945	189.6682	-2084.88937	240.01419	82.65106	-1944.90967	34.31036	615.317	-1616.54434	50.06261	511.48666	-1442.75146	59.79905	339.80667	-1403.34412	56.50735	138.46824	-1400.72464	103.23901	80.30696	-1448.56445	76.63285	85.64926	-1267.02492
78	2.577	217.67172	1572.29385	-1525.97427	48.55017	1568.75397	-1495.7785	230.34479	1492.40234	-1624.09149	13.57615	1513.49319	-1574.26514	194.49703	1312.11227	-1447.29431	68.29955	1301.45752	-1466.69754	217.3547	1367.06116	-1569.54163	68.61741	1362.89398	-1580.29312	176.01414	1209.6241	-1652.75223	127.91503	1246.40297	-1410.48798	128.01107	1145.55588	-1366.93329	294.31173	1345.59097	-1477.80182	371.65752	1140.47478	-1574.54193	390.08701	1056.42174	-1588.23318	386.74152	1005.20828	-1646.01334	374.36718	832.92679	-1665.29648	444.41105	851.96136	-1666.11588	435.21057	772.46658	-1672.35519	-17.36526	1330.08759	-1521.55869	-22.19995	1217.26509	-1677.06573	-67.38913	1103.05824	-1736.45096	-71.50534	1033.57368	-1798.84033	-36.91324	880.32349	-1823.96805	-106.96651	892.36008	-1853.87894	-94.65694	837.44698	-1862.3558	287.49598	880.08018	-1495.72098	26.62596	889.67796	-1521.18912	255.03174	983.69408	-1650.68909	87.72111	1000.20966	-1672.14752	308.048	655.62607	-1743.38547	301.96878	498.60825	-1763.07953	254.32051	317.67159	-1850.73166	290.20973	224.32362	-1985.34225	237.64526	213.37368	-2059.56451	240.66532	82.94607	-1934.28207	28.92372	622.99786	-1587.47849	43.83142	512.79522	-1418.68805	57.6975	340.05947	-1385.28992	56.67655	138.5313	-1392.11624	103.11653	82.95012	-1445.60394	76.87142	79.52922	-1262.62863
79	2.61	211.70742	1588.1395	-1507.57629	42.62581	1583.40622	-1476.78253	224.88235	1506.82129	-1604.4986	8.07894	1526.47461	-1554.22485	190.08825	1330.02335	-1421.69907	64.23869	1317.6767	-1440.69916	213.66917	1380.11078	-1545.60074	64.67924	1373.27148	-1557.04453	171.0726	1217.78824	-1623.10455	123.57169	1266.1924	-1381.67404	123.31552	1167.3838	-1333.51212	290.17023	1362.20734	-1452.77725	364.3911	1145.51552	-1524.62433	381.94	1061.37489	-1534.17786	376.40572	1004.3531	-1586.48956	365.45513	831.15051	-1589.02405	435.51598	850.90439	-1593.6467	424.26044	769.53018	-1596.26678	-21.72768	1341.89285	-1496.9989	-34.5538	1202.41173	-1639.44336	-75.96268	1079.93515	-1676.89957	-82.25698	1005.63133	-1730.51849	-51.65645	849.74495	-1739.50378	-121.10986	860.34355	-1768.89969	-110.65248	804.83055	-1771.63681	278.76133	895.31952	-1458.00995	18.53573	903.32779	-1484.08295	252.15748	994.55612	-1610.63278	79.86746	1011.44348	-1635.49622	302.29412	663.85086	-1699.74838	300.42423	506.1401	-1713.11539	256.8862	326.75285	-1809.4046	293.82313	244.16906	-1950.56976	241.6424	240.18505	-2023.90121	242.60067	88.65314	-1918.60931	23.9268	631.75262	-1563.54248	39.96979	511.37718	-1401.44028	54.28727	339.11358	-1376.40533	55.97004	137.86852	-1390.61905	102.92025	84.03222	-1445.4332	79.69978	78.87155	-1261.51794
80	2.643	208.21617	1604.06555	-1489.80392	39.29189	1599.21448	-1458.99704	221.37007	1523.116	-1587.03903	4.61318	1542.61398	-1536.67709	185.5744	1350.32761	-1401.78787	60.32079	1337.16263	-1420.25497	209.46602	1393.96378	-1527.0462	60.67063	1384.944	-1538.58948	165.96966	1227.91245	-1597.86118	119.07832	1289.89548	-1357.6088	119.02421	1192.35466	-1306.10168	285.31986	1381.56723	-1432.82623	359.19048	1156.25465	-1480.55664	377.42928	1071.52908	-1477.11639	372.3542	1008.44505	-1522.0192	360.1992	836.91139	-1503.84445	430.76542	855.00862	-1508.26248	413.75904	772.12166	-1502.57111	-26.2177	1357.11578	-1477.5267	-45.81836	1189.61403	-1598.81897	-83.76667	1066.15616	-1611.73599	-91.95046	984.34532	-1652.229	-63.04417	828.20175	-1638.62045	-135.10991	836.44676	-1665.02533	-126.79001	780.69313	-1658.26523	273.81861	914.28391	-1424.84543	14.26656	918.72414	-1444.64066	245.74677	1009.13445	-1575.21667	69.97019	1024.09836	-1599.73572	294.05649	668.35106	-1652.74155	297.55329	509.26842	-1651.92383	257.65686	332.8001	-1755.72952	294.45698	262.3741	-1903.28323	242.00272	265.203	-1974.6936	243.96582	97.4671	-1894.65073	18.36764	642.46422	-1541.15128	37.08998	512.34192	-1390.85663	51.80345	339.33533	-1371.93008	54.37865	138.30948	-1390.6575	101.48118	84.43464	-1446.16699	79.2116	78.72358	-1262.39632
